<?xml version="1.0" encoding="utf-8"?>
<!-- Generator: Adobe Illustrator 22.1.0, SVG Export Plug-In . SVG Version: 6.00 Build 0)  -->
<svg version="1.1" xmlns="http://www.w3.org/2000/svg" xmlns:xlink="http://www.w3.org/1999/xlink" x="0px" y="0px"
	 viewBox="0 0 366.3 70" style="enable-background:new 0 0 366.3 70;" xml:space="preserve">
<style type="text/css">
	.st0{fill:#FFFFFF;}
	.st1{font-family:'Avenir-Black';}
	.st2{font-size:29.4381px;}
	.st3{font-family:'Avenir-MediumOblique';}
	.st4{font-size:11.6169px;}
	.st5{letter-spacing:5;}
	.st6{display:none;}
	.st7{display:inline;fill:url(#SVGID_1_);}
	.st8{display:inline;fill:#FFFFFF;}
	.st9{display:inline;}
	.st10{clip-path:url(#SVGID_3_);}
	.st11{opacity:0.2;fill:#FFFFFF;enable-background:new    ;}
	.st12{fill:url(#SVGID_4_);}
	.st13{fill:url(#SVGID_5_);}
</style>
<g id="Layer_2">
	<g>
		<g id="Layer_1_xA0_Image_1_">
			
				<image style="overflow:visible;enable-background:new    ;" width="2089" height="226" id="Layer_1_xA0_Image" xlink:href="E6EA5039.png"  transform="matrix(9.725890e-02 0 0 9.725890e-02 60.499 14.8548)">
			</image>
		</g>
		<g id="Layer_2_xA0_Image_1_">
			
				<image style="overflow:visible;enable-background:new    ;" width="521" height="409" id="Layer_2_xA0_Image" xlink:href="E6EA503B.png"  transform="matrix(0.1147 0 0 0.1147 7.3672 11.1007)">
			</image>
		</g>
		<g id="Wallet">
			<text transform="matrix(1 0 0 1 270.1572 36.8511)" class="st0 st1 st2">Wallet</text>
		</g>
		<g id="powered_by_MyEtherWallet">
			<text transform="matrix(1 0 0 1 72.1143 50.3887)" class="st0 st3 st4 st5">powered by MyEtherWallet</text>
		</g>
	</g>
</g>
<g id="Layer_1" class="st6">
	<title>MyEtherWallet CX Logo</title>
	
		<linearGradient id="SVGID_1_" gradientUnits="userSpaceOnUse" x1="58.652" y1="67.5987" x2="0.432" y2="-18.0813" gradientTransform="matrix(1 0 0 -1 0 72)">
		<stop  offset="0" style="stop-color:#1ABC9C"/>
		<stop  offset="1" style="stop-color:#1A5DAF"/>
	</linearGradient>
	<circle class="st7" cx="37.9" cy="35" r="32"/>
	<path class="st8" d="M25,27.5"/>
	<g class="st9">
		<defs>
			<circle id="SVGID_2_" cx="37.9" cy="35" r="32"/>
		</defs>
		<clipPath id="SVGID_3_">
			<use xlink:href="#SVGID_2_"  style="overflow:visible;"/>
		</clipPath>
		<g class="st10">
			<path class="st11" d="M66.8,35.3l-10,24.5l-5.3-12.5l4.8-11.8h-2.6l-3.9,9.8l-3.9-9.8h-2.6l4.8,11.8l-5.3,12.5L32.8,35.3l-5-11.9
				L33,10.8l10,24.5h3L34.2,7.7h-2.4L26,21.3L20.1,7.7h-2.4L6.1,35.4H9l10.1-24.5l5.3,12.5l-4.8,11.8h2.6l3.9-9.8l4,9.9L41.6,63H44
				l5.8-13.7L55.6,63h2.4l11.7-27.7H66.8z"/>
			
				<linearGradient id="SVGID_4_" gradientUnits="userSpaceOnUse" x1="37.8301" y1="68.64" x2="28.8401" y2="8.67" gradientTransform="matrix(1 0 0 -1 0 72)">
				<stop  offset="0" style="stop-color:#1ABC9C"/>
				<stop  offset="1" style="stop-color:#1A5DAF"/>
			</linearGradient>
			<path class="st12" d="M40.2,47.5c-0.8,0.2-1.6,0.3-2.3,0.3c-5.6,0-10.3-4.3-10.7-10.6c0.1-1.2,0.3-2.4,0.6-3.6L19.1,30
				c-0.9,2.5-1.4,5.1-1.4,7.7c0,10.8,9.3,19.6,20.1,19.6c2.5,0,5-0.5,7.3-1.4L40.2,47.5z"/>
			
				<linearGradient id="SVGID_5_" gradientUnits="userSpaceOnUse" x1="47.4245" y1="67.1993" x2="38.4345" y2="7.2293" gradientTransform="matrix(1 0 0 -1 0 72)">
				<stop  offset="0" style="stop-color:#1ABC9C"/>
				<stop  offset="1" style="stop-color:#1A5DAF"/>
			</linearGradient>
			<path class="st13" d="M37.9,17c-2.8,0-5.6,0.6-8.1,1.8l4.9,8.3c1.1-0.4,2.2-0.6,3.3-0.5c4.9,0,10.2,4.1,10.7,9.2l-14,0.1
				l21.9,9.3c1.1-2.6,1.6-5.5,1.5-8.3C57.9,26,48.7,17,37.9,17z"/>
			<path class="st0" d="M40.2,45.4c-0.8,0.2-1.6,0.3-2.3,0.3c-5.6,0-10.3-4.3-10.7-10.6c0.1-1.2,0.3-2.4,0.6-3.6l-8.6-3.7
				c-0.9,2.5-1.4,5.1-1.4,7.7c0,10.8,9.3,19.6,20.1,19.6c2.5,0,5-0.5,7.3-1.4L40.2,45.4z M37.9,14.9c-2.8,0-5.6,0.6-8.1,1.8l4.9,8.3
				c1.1-0.4,2.2-0.6,3.3-0.5c4.9,0,10.2,4.1,10.7,9.2l-14,0.1L56.4,43c1.1-2.6,1.6-5.5,1.5-8.3C57.9,23.8,48.7,14.9,37.9,14.9z"/>
		</g>
	</g>
	<path class="st8" d="M109.1,44.6V30.2l-5.6,10.7h-2.3l-5.6-10.7v14.3h-4.2V22.9h4.5l6.4,12.3l6.5-12.3h4.5v21.7H109.1z M118.1,47.7
		c0.3,0.1,0.7,0.2,1,0.2c0.3,0,0.5,0.1,0.8,0.1c0.3,0,0.5,0,0.7-0.2c0.2-0.1,0.5-0.3,0.6-0.5c0.2-0.3,0.4-0.7,0.6-1
		c0.2-0.4,0.4-1,0.6-1.7l-6.3-16h4.2l4.3,12.4l3.9-12.5h3.9l-6.7,19.2c-0.4,1.1-1.1,2.1-2,2.8c-1,0.7-2.2,1.1-3.5,1.1
		c-0.3,0-0.7,0-1-0.1c-0.4-0.1-0.7-0.1-1.1-0.3L118.1,47.7L118.1,47.7z M150.3,40.9v3.7h-15.1V22.9H150v3.7h-10.6v5.2h9.1v3.4h-9.1
		v5.7H150.3L150.3,40.9z M162.6,43.7c-0.7,0.3-1.3,0.5-2,0.7c-0.8,0.2-1.7,0.4-2.5,0.4c-0.5,0-1.1-0.1-1.6-0.2
		c-0.5-0.1-0.9-0.4-1.3-0.7c-0.4-0.3-0.7-0.7-0.9-1.2c-0.2-0.6-0.4-1.2-0.3-1.8v-9.2h-2.1v-3.1h2.1v-5.2h4.1v5.2h3.4v3.1h-3.4v7.8
		c-0.1,0.4,0.1,0.9,0.4,1.2c0.3,0.2,0.7,0.4,1.1,0.3c0.4,0,0.8-0.1,1.3-0.2c0.4-0.1,0.7-0.3,1-0.4L162.6,43.7z M180,44.6h-4.1v-9
		c0.1-1-0.2-2-0.7-2.8c-0.5-0.6-1.2-0.9-2-0.9c-0.4,0-0.8,0.1-1.2,0.2c-0.4,0.2-0.8,0.4-1.2,0.7c-0.4,0.3-0.7,0.7-1,1
		c-0.3,0.4-0.5,0.9-0.7,1.3v9.3h-4.1V22.3h4.1v9.3c0.6-1,1.4-1.8,2.4-2.4c1-0.6,2.2-0.9,3.3-0.8c0.9,0,1.7,0.1,2.5,0.5
		c0.6,0.3,1.1,0.8,1.5,1.4c0.4,0.6,0.6,1.3,0.8,2c0.1,0.8,0.2,1.5,0.2,2.3L180,44.6L180,44.6z M191.3,44.9c-1.2,0-2.4-0.2-3.5-0.7
		c-2-0.8-3.6-2.4-4.4-4.4c-0.4-1-0.6-2.1-0.6-3.2c0-1.1,0.2-2.2,0.6-3.2c0.4-1,0.9-1.9,1.7-2.7c0.8-0.8,1.7-1.4,2.7-1.8
		c1.1-0.5,2.3-0.7,3.5-0.7c1.2,0,2.4,0.2,3.5,0.7c1,0.4,1.9,1,2.6,1.8c0.7,0.8,1.3,1.7,1.6,2.6c0.4,1,0.6,2,0.6,3.1v0.8
		c0,0.2,0,0.4-0.1,0.6h-12.4c0,0.6,0.2,1.2,0.5,1.7c0.5,0.9,1.3,1.6,2.3,2c0.5,0.2,1,0.3,1.5,0.3c0.8,0,1.6-0.2,2.3-0.6
		c0.7-0.3,1.2-0.9,1.5-1.6l3.5,1c-0.6,1.3-1.6,2.3-2.8,3C194.5,44.5,192.9,44.9,191.3,44.9L191.3,44.9z M195.4,35.2
		c-0.1-1.1-0.5-2.1-1.3-2.9c-1.6-1.5-4.1-1.5-5.7,0c-0.4,0.4-0.7,0.8-0.9,1.3c-0.2,0.5-0.4,1.1-0.4,1.6L195.4,35.2L195.4,35.2z
		 M212,32.1c-1.1,0-2.3,0.2-3.3,0.7c-0.9,0.4-1.7,1.1-2.1,2.1v9.7h-4.1v-16h3.8V32c0.3-0.5,0.6-1,1-1.5c0.4-0.4,0.8-0.8,1.3-1.1
		c0.4-0.3,0.9-0.6,1.4-0.8c0.4-0.2,0.9-0.3,1.3-0.3h0.5c0.1,0,0.2,0,0.3,0L212,32.1L212,32.1z M222.4,22.9h3.9l2.4,7.2l2.4-7.2h3.9
		l-3.7,9.9l2.8,6.9l6.1-16.9h4.6L236,44.6h-3.5l-3.8-9.1l-3.7,9.1h-3.5l-8.8-21.7h4.5l6.2,16.9l2.7-6.9L222.4,22.9z M249.9,44.9
		c-0.7,0-1.5-0.1-2.2-0.4c-0.6-0.2-1.2-0.6-1.7-1.1c-0.5-0.5-0.9-1-1.1-1.6c-0.3-0.6-0.4-1.3-0.4-2c0-0.7,0.2-1.4,0.5-2.1
		c0.3-0.6,0.8-1.2,1.4-1.6c0.7-0.5,1.4-0.9,2.2-1.1c0.9-0.3,1.8-0.4,2.8-0.4c0.7,0,1.4,0.1,2.1,0.2c0.6,0.1,1.2,0.3,1.8,0.5v-0.9
		c0.1-0.9-0.3-1.8-0.9-2.4c-0.7-0.6-1.7-0.9-2.7-0.9c-0.9,0-1.7,0.2-2.5,0.5c-0.9,0.3-1.7,0.8-2.5,1.3l-1.3-2.6c2-1.3,4.3-2,6.7-2
		c1.9-0.1,3.8,0.5,5.3,1.7c1.3,1.3,2,3.1,1.9,4.9v5c0,0.3,0.1,0.6,0.2,0.9c0.2,0.2,0.5,0.3,0.8,0.3v3.5c-0.6,0.1-1.2,0.2-1.8,0.2
		c-0.6,0-1.3-0.1-1.8-0.5c-0.4-0.3-0.7-0.8-0.8-1.4l-0.1-0.9c-0.7,0.9-1.6,1.6-2.6,2.1C252.1,44.6,251,44.9,249.9,44.9L249.9,44.9z
		 M251,41.9c0.7,0,1.4-0.1,2-0.4c0.6-0.2,1.1-0.6,1.4-1c0.4-0.3,0.6-0.7,0.7-1.2v-1.8c-0.5-0.2-1-0.3-1.6-0.4
		c-0.5-0.1-1.1-0.2-1.6-0.2c-0.9,0-1.8,0.2-2.6,0.7c-0.6,0.4-1,1.1-1,1.8c0,0.7,0.3,1.3,0.8,1.7C249.6,41.6,250.3,41.9,251,41.9
		L251,41.9z M263.3,22.3h4.1v17.2c0,0.5,0.1,1,0.4,1.4c0.3,0.3,0.8,0.5,1.2,0.5c0.3,0,0.5,0,0.8-0.1c0.3-0.1,0.6-0.2,0.8-0.3
		l0.5,3.1c-0.6,0.3-1.3,0.5-1.9,0.6c-0.7,0.1-1.3,0.2-2,0.2c-1.1,0.1-2.2-0.3-3-1c-0.7-0.8-1.1-1.8-1-2.9L263.3,22.3L263.3,22.3z
		 M273.3,22.3h4.1v17.2c0,0.5,0.1,1,0.4,1.4c0.3,0.3,0.8,0.5,1.2,0.5c0.3,0,0.5,0,0.8-0.1c0.3-0.1,0.6-0.2,0.8-0.3l0.5,3.1
		c-0.6,0.3-1.3,0.5-1.9,0.6c-0.7,0.1-1.3,0.2-2,0.2c-1.1,0.1-2.2-0.3-3-1c-0.7-0.8-1.1-1.8-1-2.9L273.3,22.3L273.3,22.3z
		 M290.7,44.9c-1.2,0-2.4-0.2-3.5-0.7c-2-0.8-3.6-2.4-4.4-4.4c-0.4-1-0.6-2.1-0.6-3.2c0-1.1,0.2-2.2,0.6-3.2c0.4-1,0.9-1.9,1.7-2.7
		c0.8-0.8,1.7-1.4,2.7-1.8c1.1-0.5,2.3-0.7,3.5-0.7c1.2,0,2.4,0.2,3.5,0.7c1,0.4,1.9,1,2.6,1.8c0.7,0.8,1.3,1.7,1.6,2.6
		c0.4,1,0.6,2,0.6,3.1v0.8c0,0.2,0,0.4-0.1,0.6h-12.4c0,0.6,0.2,1.2,0.5,1.7c0.5,0.9,1.3,1.6,2.3,2c0.5,0.2,1,0.3,1.5,0.3
		c0.8,0,1.6-0.2,2.3-0.6c0.7-0.3,1.2-0.9,1.5-1.6l3.5,1c-0.6,1.3-1.6,2.3-2.8,3C293.9,44.5,292.3,44.9,290.7,44.9z M294.9,35.2
		c-0.1-1.1-0.5-2.1-1.3-2.9c-1.6-1.5-4.1-1.5-5.7,0c-0.4,0.4-0.7,0.8-0.9,1.3c-0.2,0.5-0.4,1.1-0.4,1.6L294.9,35.2L294.9,35.2z
		 M311.3,43.7c-0.7,0.3-1.3,0.5-2,0.7c-0.8,0.2-1.7,0.4-2.5,0.4c-0.5,0-1.1-0.1-1.6-0.2c-0.5-0.1-0.9-0.4-1.3-0.7
		c-0.4-0.3-0.7-0.7-0.9-1.2c-0.2-0.6-0.4-1.2-0.3-1.8v-9.2h-2.1v-3.1h2.1v-5.2h4.1v5.2h3.4v3.1h-3.4v7.8c-0.1,0.4,0.1,0.9,0.4,1.2
		c0.3,0.2,0.7,0.4,1.1,0.3c0.4,0,0.8-0.1,1.3-0.2c0.4-0.1,0.7-0.3,1-0.4L311.3,43.7z M320.5,33.6c0-1.3,0.2-2.7,0.7-3.9
		c1-2.6,2.9-4.8,5.5-5.9c1.4-0.7,3-1,4.5-1c1.8,0,3.6,0.4,5.2,1.3c1.4,0.8,2.5,2,3.3,3.4l-3.2,2.2c-0.2-0.6-0.6-1.1-1-1.5
		c-0.4-0.4-0.8-0.7-1.3-1c-0.5-0.2-1-0.4-1.5-0.5c-0.5-0.1-1-0.2-1.5-0.2c-1,0-1.9,0.2-2.8,0.6c-0.8,0.4-1.5,1-2,1.7
		c-0.5,0.7-0.9,1.5-1.2,2.3c-0.3,0.8-0.4,1.7-0.4,2.6c0,0.9,0.2,1.9,0.5,2.8c0.3,0.9,0.7,1.6,1.3,2.3c0.6,0.7,1.2,1.2,2,1.6
		c0.8,0.4,1.7,0.6,2.6,0.6c0.5,0,1-0.1,1.5-0.2c0.5-0.1,1-0.3,1.5-0.6c0.5-0.3,0.9-0.6,1.3-1c0.4-0.4,0.8-0.9,1-1.5l3.5,2
		c-0.3,0.8-0.8,1.5-1.5,2.2c-0.6,0.6-1.4,1.2-2.2,1.6c-0.8,0.4-1.7,0.8-2.6,1c-0.9,0.2-1.8,0.3-2.7,0.3c-1.5,0-2.9-0.3-4.2-1
		c-1.3-0.6-2.4-1.5-3.3-2.5c-0.9-1.1-1.7-2.3-2.2-3.6C320.8,36.4,320.5,35,320.5,33.6L320.5,33.6z M345.1,22.9l5.4,8.1l5.4-8.1h4.5
		l-7.7,11l7.5,10.7h-4.5l-5.1-7.8l-5.2,7.8h-4.6l7.5-10.7l-7.7-11L345.1,22.9L345.1,22.9z"/>
</g>
</svg>
