<?xml version="1.0" encoding="utf-8"?>
<!-- Generator: Adobe Illustrator 22.1.0, SVG Export Plug-In . SVG Version: 6.00 Build 0)  -->
<svg version="1.1" xmlns="http://www.w3.org/2000/svg" xmlns:xlink="http://www.w3.org/1999/xlink" x="0px" y="0px"
	 viewBox="0 0 1280 1280" style="enable-background:new 0 0 1280 1280;" xml:space="preserve">
<style type="text/css">
	.st0{display:none;}
	.st1{display:inline;}
	.st2{clip-path:url(#SVGID_2_);fill:#F7C65B;}
	.st3{clip-path:url(#SVGID_2_);fill:#FADB90;}
	.st4{clip-path:url(#SVGID_2_);fill:#E9B95E;}
	.st5{clip-path:url(#SVGID_2_);fill:#CA9942;}
	.st6{clip-path:url(#SVGID_2_);}
	.st7{clip-path:url(#SVGID_4_);fill:#F7C65B;}
	.st8{clip-path:url(#SVGID_4_);fill:#CA9942;}
	.st9{fill:#E9B95E;}
	.st10{font-family:'Avenir-MediumOblique';}
	.st11{font-size:142.959px;}
	.st12{font-size:142.9591px;}
	.st13{font-size:142.9594px;}
</style>
<g id="Layer_1" class="st0">
	<path class="st1" d="M612,0.9c-20.4,0.8-56,4.7-78.7,8.5c-91.7,15.3-181.5,51.7-256.3,103.9c-89.3,62.1-159.2,141.7-207.6,236.4
		C38.1,411.1,16.5,479.2,6.8,547.3c-5.1,35.5-6,49.1-6,92c-0.1,43.3,0.9,58.8,6,94c21.7,149.7,96.9,287.5,211.9,388.4
		c85.1,74.7,191.7,126.5,302,146.9c86.5,16,174.8,14.4,260.7-4.7c117.3-26,233.5-91.2,317.2-178c99.2-103.1,159.9-231.6,176.8-374.7
		c2.9-24.5,4.1-93.6,2.1-118.7c-5.5-67.7-19.1-126.7-43.1-187.7c-42.5-108.1-115.6-204.1-209.2-275.2C907.6,40.5,761.1-5.1,612,0.9z
		 M687.3,234c74.5,9.5,144.9,39.5,204,86.7c17.1,13.6,49.3,45.7,62.1,62c62.1,78.3,90.7,165.2,87.5,266.7
		c-1.2,36.8-6,68.3-15.6,101.6c-4.3,14.8-13.1,39.7-14.5,41.5c-0.5,0.5-77.7-31.6-171.6-71.6c-93.7-39.9-192.3-81.9-218.9-93.1
		l-48.4-20.7l81.1-0.8c44.5-0.5,107.6-0.9,140.1-0.9H852v-4.5c0-7.5-7.3-34-13.1-47.2c-29.1-66.5-98.9-119.2-172.7-130.1
		c-29.1-4.4-56.5-1.9-89.7,7.9c-2.5,0.8-4-1.1-12.1-14.9c-67.7-114.9-85.1-144.1-86.8-146.8c-1.9-2.9-1.7-3.1,6.9-6.9
		c30.3-13.7,82.5-27.1,120.1-30.5C622.5,230.4,667.5,231.5,687.3,234L687.3,234z M316,511.1c128.1,54.4,120.7,51.1,120.5,55.2
		c0,2-1.7,11.9-3.6,21.7c-7.2,38-7.5,52-1.5,82.1c9.1,45.9,27.7,81.2,59.7,113.3c36.5,36.4,75.6,54.9,127.7,60.7
		c16,1.7,44,0.8,57.7-2c8.1-1.7,9.5-1.7,10.8,0c0.9,1.1,23.1,38.5,49.2,83.3c29.2,49.7,47.2,81.9,46.5,82.5
		c-1.9,1.9-35.1,12.5-51.2,16.5c-91.1,22.1-187.6,10.8-273.3-32c-41.1-20.5-72.1-43.2-106.1-77.1c-45.3-45.3-74.3-90.9-94.3-148.5
		c-21.5-61.3-26.5-128.5-14.9-197.2c5.7-33.5,19.1-81.3,22.4-80C266.7,490.1,289.2,499.7,316,511.1L316,511.1z"/>
</g>
<g id="Layer_2">
	<g>
		<g>
			<defs>
				<rect id="SVGID_1_" x="0" y="0" width="1280" height="1280"/>
			</defs>
			<clipPath id="SVGID_2_">
				<use xlink:href="#SVGID_1_"  style="overflow:visible;"/>
			</clipPath>
			<polygon class="st2" points="625,617.4 338,484.6 109,713.6 396.1,1000.6 			"/>
			<polygon class="st3" points="625,771.7 625,617.4 109,713.6 396.1,1000.7 			"/>
			<polygon class="st4" points="625,200 338,484.6 625,617.4 			"/>
			<polygon class="st4" points="625,617.4 912.1,484.6 1141,713.6 853.9,1000.6 			"/>
			<polygon class="st2" points="625,771.7 625,617.4 1141,713.6 853.9,1000.7 			"/>
			<polygon class="st5" points="625,200 912.1,484.6 625,617.4 			"/>
			<g class="st6">
				<defs>
					<rect id="SVGID_3_" x="0" y="0" width="1280" height="1280"/>
				</defs>
				<clipPath id="SVGID_4_">
					<use xlink:href="#SVGID_3_"  style="overflow:visible;"/>
				</clipPath>
				<path class="st7" d="M625,617.4l-228.9,383.3c0,0,228.9-226,228.9-229V617.4z"/>
				<polygon class="st8" points="625,771.7 625,617.4 853.9,1000.7 				"/>
			</g>
			<g class="st6">
				<text transform="matrix(0.7006 -0.7135 0.7135 0.7006 979.748 1067.1228)" class="st9 st10 st11">P</text>
			</g>
			<g class="st6">
				<text transform="matrix(0.7006 -0.7135 0.7135 0.7006 1039.1837 1006.6013)" class="st9 st10 st12">L</text>
			</g>
			<g class="st6">
				<text transform="matrix(0.7006 -0.7135 0.7135 0.7006 1091.1759 953.6503)" class="st9 st10 st13">U</text>
			</g>
			<g class="st6">
				<text transform="matrix(0.7006 -0.7135 0.7135 0.7006 1161.728 881.7982)" class="st9 st10 st11">S</text>
			</g>
		</g>
	</g>
</g>
</svg>
