<?xml version="1.0" encoding="utf-8"?>
<!-- Generator: Adobe Illustrator 22.1.0, SVG Export Plug-In . SVG Version: 6.00 Build 0)  -->
<svg version="1.1" xmlns="http://www.w3.org/2000/svg" xmlns:xlink="http://www.w3.org/1999/xlink" x="0px" y="0px"
	 viewBox="0 0 315 70" style="enable-background:new 0 0 315 70;" xml:space="preserve">
<style type="text/css">
	.st0{display:none;}
	.st1{display:inline;}
	.st2{display:inline;fill:url(#SVGID_1_);}
	.st3{clip-path:url(#SVGID_3_);}
	.st4{opacity:0.2;fill:#FFFFFF;enable-background:new    ;}
	.st5{fill:url(#SVGID_4_);}
	.st6{fill:url(#SVGID_5_);}
	.st7{fill:#FFFFFF;}
	.st8{display:inline;fill:#FFFFFF;}
	.st9{font-family:'Avenir-Black';}
	.st10{font-size:25.7695px;}
	.st11{font-family:'Avenir-MediumOblique';}
	.st12{font-size:10.1692px;}
	.st13{letter-spacing:5;}
</style>
<g id="Layer_3" class="st0">
	<rect class="st1" width="315" height="70"/>
</g>
<g id="Layer_1" class="st0">
	<title>MyEtherWallet Logo</title>
	
		<linearGradient id="SVGID_1_" gradientUnits="userSpaceOnUse" x1="57.5519" y1="67.5987" x2="-0.668" y2="-18.0813" gradientTransform="matrix(1 0 0 -1 0 72)">
		<stop  offset="0" style="stop-color:#1ABC9C"/>
		<stop  offset="1" style="stop-color:#1A5DAF"/>
	</linearGradient>
	<circle class="st2" cx="36.8" cy="35" r="32"/>
	<g class="st1">
		<defs>
			<circle id="SVGID_2_" cx="36.8" cy="35" r="32"/>
		</defs>
		<clipPath id="SVGID_3_">
			<use xlink:href="#SVGID_2_"  style="overflow:visible;"/>
		</clipPath>
		<g class="st3">
			<path class="st4" d="M65.7,35.3l-10,24.5l-5.3-12.5l4.8-11.8h-2.6l-3.9,9.8l-3.9-9.8h-2.6L47,47.3l-5.3,12.5L31.7,35.3l-5-11.9
				l5.2-12.5l10,24.5h3L33.1,7.7h-2.4l-5.8,13.6L19,7.7h-2.4L5,35.4h2.9L18,10.9l5.3,12.5l-4.8,11.8H21l3.9-9.8l3.9,9.9L40.5,63h2.4
				l5.8-13.7L54.5,63H57l11.7-27.7C68.7,35.3,65.7,35.3,65.7,35.3z"/>
			
				<linearGradient id="SVGID_4_" gradientUnits="userSpaceOnUse" x1="36.6956" y1="68.6436" x2="27.7156" y2="8.6736" gradientTransform="matrix(1 0 0 -1 0 72)">
				<stop  offset="0" style="stop-color:#1ABC9C"/>
				<stop  offset="1" style="stop-color:#1A5DAF"/>
			</linearGradient>
			<path class="st5" d="M39.1,47.5c-0.8,0.2-1.6,0.3-2.3,0.3c-5.6,0-10.3-4.3-10.7-10.6c0.1-1.2,0.3-2.4,0.6-3.6L18,30
				c-0.9,2.5-1.4,5.1-1.4,7.7c0,10.8,9.3,19.6,20.1,19.6c2.5,0,5-0.5,7.3-1.4L39.1,47.5z"/>
			
				<linearGradient id="SVGID_5_" gradientUnits="userSpaceOnUse" x1="46.3245" y1="67.1993" x2="37.3345" y2="7.2293" gradientTransform="matrix(1 0 0 -1 0 72)">
				<stop  offset="0" style="stop-color:#1ABC9C"/>
				<stop  offset="1" style="stop-color:#1A5DAF"/>
			</linearGradient>
			<path class="st6" d="M36.8,17c-2.8,0-5.6,0.6-8.1,1.8l4.9,8.3c1.1-0.4,2.2-0.6,3.3-0.5c4.9,0,10.2,4.1,10.7,9.2l-14,0.1l21.9,9.3
				c1.1-2.6,1.6-5.5,1.5-8.3C56.8,26,47.6,17,36.8,17z"/>
			<path class="st7" d="M39.1,45.4c-0.8,0.2-1.6,0.3-2.3,0.3c-5.6,0-10.3-4.3-10.7-10.6c0.1-1.2,0.3-2.4,0.6-3.6L18,27.8
				c-0.9,2.5-1.4,5.1-1.4,7.7c0,10.8,9.3,19.6,20.1,19.6c2.5,0,5-0.5,7.3-1.4L39.1,45.4z M36.8,14.9c-2.8,0-5.6,0.6-8.1,1.8l4.9,8.3
				c1.1-0.4,2.2-0.6,3.3-0.5c4.9,0,10.2,4.1,10.7,9.2l-14,0.1L55.3,43c1.1-2.6,1.6-5.5,1.5-8.3C56.8,23.8,47.6,14.9,36.8,14.9z"/>
		</g>
	</g>
	<path class="st8" d="M108,44.6V30.2l-5.6,10.7h-2.3l-5.6-10.7v14.3h-4.2V22.9h4.5l6.4,12.3l6.5-12.3h4.5v21.7H108z M117,47.7
		c0.3,0.1,0.7,0.2,1,0.2c0.3,0,0.5,0.1,0.8,0.1c0.3,0,0.5,0,0.7-0.2c0.2-0.1,0.5-0.3,0.6-0.5c0.2-0.3,0.4-0.7,0.6-1
		c0.2-0.4,0.4-1,0.6-1.7l-6.3-16h4.2l4.3,12.4l3.8-12.5h3.9l-6.7,19.2c-0.4,1.1-1.1,2.1-2,2.8c-1,0.7-2.2,1.1-3.5,1.1
		c-0.3,0-0.7,0-1-0.1c-0.4-0.1-0.7-0.1-1.1-0.3L117,47.7L117,47.7z M149.2,40.9v3.7h-15.1V22.9h14.8v3.7h-10.6v5.2h9.1v3.4h-9.1v5.7
		H149.2L149.2,40.9z M161.5,43.7c-0.7,0.3-1.3,0.5-2,0.7c-0.8,0.2-1.7,0.4-2.5,0.4c-0.5,0-1.1-0.1-1.6-0.2c-0.5-0.1-0.9-0.4-1.3-0.7
		c-0.4-0.3-0.7-0.7-0.9-1.2c-0.2-0.6-0.4-1.2-0.3-1.8v-9.2h-2.1v-3.1h2.1v-5.2h4.1v5.2h3.4v3.1H157v7.8c-0.1,0.4,0.1,0.9,0.4,1.2
		c0.3,0.2,0.7,0.4,1.1,0.3c0.4,0,0.8-0.1,1.3-0.2c0.4-0.1,0.7-0.3,1-0.4L161.5,43.7z M178.8,44.6h-4.1v-9c0.1-1-0.2-2-0.7-2.8
		c-0.5-0.6-1.2-0.9-2-0.9c-0.4,0-0.8,0.1-1.2,0.2c-0.4,0.2-0.8,0.4-1.2,0.7c-0.4,0.3-0.7,0.7-1,1c-0.3,0.4-0.5,0.9-0.7,1.3v9.3H164
		V22.3h4.1v9.3c0.6-1,1.4-1.8,2.4-2.4c1-0.6,2.2-0.9,3.3-0.8c0.9,0,1.7,0.1,2.5,0.5c0.6,0.3,1.2,0.8,1.5,1.4c0.4,0.6,0.6,1.3,0.8,2
		c0.1,0.8,0.2,1.5,0.2,2.3L178.8,44.6L178.8,44.6z M190.1,44.9c-1.2,0-2.4-0.2-3.5-0.7c-2-0.8-3.6-2.4-4.4-4.4
		c-0.4-1-0.6-2.1-0.6-3.2c0-1.1,0.2-2.2,0.6-3.2c0.4-1,1-1.9,1.7-2.6c0.8-0.8,1.7-1.4,2.6-1.8c1.1-0.5,2.3-0.7,3.5-0.7
		c1.2,0,2.4,0.2,3.5,0.7c1,0.4,1.9,1,2.6,1.8c0.7,0.8,1.3,1.7,1.6,2.6c0.4,1,0.6,2,0.6,3.1v0.8c0,0.2,0,0.4-0.1,0.6h-12.4
		c0,0.6,0.2,1.2,0.5,1.7c0.5,0.9,1.3,1.6,2.3,2c0.5,0.2,1,0.3,1.5,0.3c0.8,0,1.6-0.2,2.3-0.6c0.7-0.3,1.2-0.9,1.5-1.6l3.5,1
		c-0.6,1.3-1.6,2.3-2.8,3C193.4,44.5,191.8,44.9,190.1,44.9L190.1,44.9z M194.3,35.2c0-1.1-0.5-2.1-1.3-2.9c-1.6-1.5-4.1-1.5-5.7,0
		c-0.4,0.4-0.7,0.8-0.9,1.3c-0.2,0.5-0.4,1.1-0.4,1.6L194.3,35.2L194.3,35.2z M210.8,32.1c-1.1,0-2.3,0.2-3.3,0.7
		c-0.9,0.4-1.7,1.1-2.1,2.1v9.7h-4.1v-16h3.8V32c0.3-0.5,0.6-1,1-1.5c0.4-0.4,0.8-0.8,1.3-1.1c0.4-0.3,0.9-0.6,1.4-0.8
		c0.4-0.2,0.9-0.3,1.3-0.3h0.5c0.1,0,0.2,0,0.3,0L210.8,32.1L210.8,32.1z M221.3,22.9h3.9l2.4,7.2l2.4-7.2h3.9l-3.7,9.9l2.7,6.9
		l6.1-16.9h4.6l-8.8,21.7h-3.5l-3.8-9.1l-3.8,9.1h-3.5l-8.8-21.7h4.5l6.2,16.9l2.7-6.9L221.3,22.9z M248.7,44.9
		c-0.7,0-1.5-0.1-2.2-0.4c-0.6-0.2-1.2-0.6-1.7-1.1c-0.5-0.5-0.9-1-1.1-1.6c-0.3-0.6-0.4-1.3-0.4-2c0-0.7,0.2-1.4,0.5-2.1
		c0.3-0.6,0.8-1.2,1.4-1.6c0.7-0.5,1.4-0.9,2.2-1.1c0.9-0.3,1.8-0.4,2.8-0.4c0.7,0,1.4,0.1,2.1,0.2c0.6,0.1,1.2,0.3,1.8,0.5v-0.9
		c0.1-0.9-0.3-1.8-0.9-2.4c-0.7-0.6-1.7-0.9-2.7-0.9c-0.9,0-1.7,0.2-2.5,0.5c-0.9,0.3-1.7,0.8-2.5,1.3l-1.3-2.6c2-1.3,4.3-2,6.7-2
		c1.9-0.1,3.8,0.5,5.3,1.7c1.3,1.3,2,3.1,1.9,4.9v5c0,0.3,0.1,0.6,0.2,0.9c0.2,0.2,0.5,0.3,0.8,0.3v3.5c-0.6,0.1-1.2,0.2-1.8,0.2
		c-0.6,0-1.3-0.1-1.8-0.5c-0.4-0.3-0.7-0.8-0.8-1.4l-0.1-0.9c-0.7,0.9-1.6,1.6-2.6,2.1C251,44.6,249.9,44.9,248.7,44.9L248.7,44.9z
		 M249.9,41.9c0.7,0,1.4-0.1,2-0.4c0.6-0.2,1.1-0.6,1.4-1c0.4-0.3,0.6-0.7,0.7-1.2v-1.8c-0.5-0.2-1-0.3-1.6-0.4
		c-0.5-0.1-1.1-0.2-1.6-0.2c-0.9,0-1.8,0.2-2.6,0.7c-0.6,0.4-1,1.1-1,1.8c0,0.7,0.3,1.3,0.8,1.7C248.5,41.6,249.2,41.9,249.9,41.9
		L249.9,41.9z M262.2,22.3h4.1v17.2c0,0.5,0.1,1,0.4,1.4c0.3,0.3,0.8,0.5,1.2,0.5c0.3,0,0.5,0,0.8-0.1c0.3-0.1,0.6-0.2,0.8-0.3
		l0.5,3.1c-0.6,0.3-1.3,0.5-1.9,0.6c-0.7,0.1-1.3,0.2-2,0.2c-1.1,0.1-2.2-0.3-3-1c-0.7-0.8-1.1-1.8-1-2.9L262.2,22.3L262.2,22.3z
		 M272.2,22.3h4.1v17.2c0,0.5,0.1,1,0.4,1.4c0.3,0.3,0.8,0.5,1.2,0.5c0.3,0,0.5,0,0.8-0.1c0.3-0.1,0.6-0.2,0.8-0.3l0.5,3.1
		c-0.6,0.3-1.3,0.5-1.9,0.6c-0.7,0.1-1.3,0.2-2,0.2c-1.1,0.1-2.2-0.3-3-1c-0.7-0.8-1.1-1.8-1-2.9L272.2,22.3L272.2,22.3z
		 M289.6,44.9c-1.2,0-2.4-0.2-3.5-0.7c-2-0.8-3.6-2.4-4.4-4.4c-0.4-1-0.6-2.1-0.6-3.2c0-1.1,0.2-2.2,0.6-3.2c0.4-1,0.9-1.9,1.7-2.7
		c0.8-0.8,1.7-1.4,2.7-1.8c1.1-0.5,2.3-0.7,3.5-0.7c1.2,0,2.4,0.2,3.5,0.7c1,0.4,1.9,1,2.6,1.8c0.7,0.8,1.3,1.7,1.6,2.6
		c0.4,1,0.6,2,0.6,3.1v0.8c0,0.2,0,0.4-0.1,0.6h-12.4c0,0.6,0.2,1.2,0.5,1.7c0.5,0.9,1.3,1.6,2.3,2c0.5,0.2,1,0.3,1.5,0.3
		c0.8,0,1.6-0.2,2.3-0.6c0.7-0.3,1.2-0.9,1.5-1.6l3.5,1c-0.6,1.3-1.6,2.3-2.8,3C292.8,44.5,291.2,44.9,289.6,44.9z M293.8,35.2
		c-0.1-1.1-0.5-2.1-1.3-2.9c-1.6-1.5-4.1-1.5-5.7,0c-0.4,0.4-0.7,0.8-0.9,1.3c-0.2,0.5-0.4,1.1-0.4,1.6L293.8,35.2L293.8,35.2z
		 M310.2,43.7c-0.7,0.3-1.3,0.5-2,0.7c-0.8,0.2-1.7,0.4-2.5,0.4c-0.5,0-1.1-0.1-1.6-0.2c-0.5-0.1-0.9-0.4-1.3-0.7
		c-0.4-0.3-0.7-0.7-0.9-1.2c-0.2-0.6-0.4-1.2-0.3-1.8v-9.2h-2.1v-3.1h2.1v-5.2h4.1v5.2h3.3v3.1h-3.4v7.8c-0.1,0.4,0.1,0.9,0.4,1.2
		c0.3,0.2,0.7,0.4,1.1,0.3c0.4,0,0.8-0.1,1.3-0.2c0.4-0.1,0.7-0.3,1-0.4L310.2,43.7z"/>
</g>
<g id="Layer_2">
	<g>
		<g id="Layer_1_xA0_Image_1_">
			
				<image style="overflow:visible;enable-background:new    ;" width="2089" height="226" id="Layer_1_xA0_Image" xlink:href="F66D84CE.png"  transform="matrix(8.513834e-02 0 0 8.513834e-02 49.2604 17.7506)">
			</image>
		</g>
		<g id="Layer_2_xA0_Image_1_">
			
				<image style="overflow:visible;enable-background:new    ;" width="521" height="409" id="Layer_2_xA0_Image" xlink:href="F66D84D2.png"  transform="matrix(0.1004 0 0 0.1004 2.75 14.4644)">
			</image>
		</g>
		<g id="Wallet">
			<text transform="matrix(1 0 0 1 232.791 37.0057)" class="st7 st9 st10">Wallet</text>
		</g>
		<g id="powered_by_MyEtherWallet">
			<text transform="matrix(1 0 0 1 59.4277 48.8563)" class="st7 st11 st12 st13">powered by MyEtherWallet</text>
		</g>
	</g>
</g>
</svg>
