<?xml version="1.0" encoding="utf-8"?>
<!-- Generator: Adobe Illustrator 22.1.0, SVG Export Plug-In . SVG Version: 6.00 Build 0)  -->
<svg version="1.1" xmlns="http://www.w3.org/2000/svg" xmlns:xlink="http://www.w3.org/1999/xlink" x="0px" y="0px"
	 viewBox="0 0 185 36" style="enable-background:new 0 0 185 36;" xml:space="preserve">
<style type="text/css">
	.st0{fill:none;}
	.st1{display:none;}
	.st2{display:inline;}
	.st3{fill:#0D5978;}
	.st4{fill:url(#Rectangle-path_1_);}
	.st5{fill:#FFFFFF;}
	.st6{font-family:'Avenir-Black';}
	.st7{font-size:15.2647px;}
	.st8{font-family:'Avenir-MediumOblique';}
	.st9{font-size:6.0238px;}
	.st10{letter-spacing:3;}
</style>
<pattern  y="36" width="36" height="36" patternUnits="userSpaceOnUse" id="pattern-1" viewBox="0 -36 36 36" style="overflow:visible;">
	<g>
		<rect y="-36" class="st0" width="36" height="36"/>
		<g transform="scale(0.1,0.1)">
			
				<image style="overflow:visible;enable-background:new    ;" width="360" height="360" id="image-2_1_" xlink:href="42B1E3F.png"  transform="matrix(0.1 0 0 -0.1 36 -36)">
			</image>
		</g>
	</g>
</pattern>
<g id="Layer_1" class="st1">
	<title>mewconnect logo</title>
	<desc>Created with Sketch.</desc>
	<g id="mewconnect-logo" class="st2">
		<g id="MEWconnectLogo">
			<g id="Group" transform="translate(45.000000, 10.000000)">
				<path id="Shape" class="st3" d="M54,9.5c0-0.7,0.1-1.4,0.4-2.1c0.3-0.7,0.7-1.3,1.2-1.8c0.5-0.5,1.2-0.9,2-1.2
					C58.5,4.1,59.4,4,60.4,4c1.4,0,2.5,0.3,3.5,0.8c0.9,0.5,1.6,1.2,2.1,2l-3.5,0.9c-0.5-0.7-1.2-1-2.1-1c-0.8,0-1.4,0.2-1.9,0.7
					c-0.5,0.5-0.7,1.2-0.7,2c0,0.4,0.1,0.8,0.2,1.2c0.1,0.3,0.3,0.6,0.6,0.9c0.2,0.2,0.5,0.4,0.8,0.6c0.3,0.1,0.7,0.2,1,0.2
					c0.5,0,0.9-0.1,1.2-0.3c0.4-0.2,0.7-0.5,0.8-0.8l3.5,1c-0.4,0.8-1.1,1.5-2.1,2c-1,0.5-2.1,0.8-3.5,0.8c-1,0-1.9-0.1-2.7-0.4
					c-0.8-0.3-1.5-0.7-2-1.2c-0.5-0.5-1-1.1-1.2-1.8C54.1,10.9,54,10.2,54,9.5z"/>
				<path id="Shape_1_" class="st3" d="M73,15c-1,0-1.8-0.1-2.6-0.4c-0.7-0.3-1.4-0.7-1.9-1.2c-0.5-0.5-0.9-1.1-1.2-1.8
					c-0.3-0.7-0.4-1.4-0.4-2.1c0-0.7,0.1-1.4,0.4-2.1c0.3-0.7,0.7-1.3,1.2-1.8c0.5-0.5,1.1-0.9,1.9-1.2C71.2,4.2,72,4,73,4
					c1,0,1.8,0.2,2.5,0.5c0.7,0.3,1.4,0.7,1.9,1.2c0.5,0.5,0.9,1.1,1.2,1.8C78.9,8.1,79,8.8,79,9.5c0,0.7-0.1,1.4-0.4,2.1
					c-0.3,0.7-0.6,1.2-1.2,1.8c-0.5,0.5-1.1,0.9-1.9,1.2C74.8,14.9,74,15,73,15z M70.5,9.5c0,0.8,0.2,1.5,0.7,2
					c0.5,0.5,1.1,0.7,1.8,0.7c0.4,0,0.7-0.1,1-0.2c0.3-0.1,0.6-0.3,0.8-0.6c0.2-0.2,0.4-0.5,0.5-0.9c0.1-0.3,0.2-0.7,0.2-1.1
					c0-0.8-0.2-1.5-0.7-2C74.3,7,73.7,6.7,73,6.7c-0.4,0-0.7,0.1-1,0.2c-0.3,0.1-0.6,0.3-0.8,0.6c-0.2,0.2-0.4,0.5-0.5,0.9
					C70.6,8.7,70.5,9.1,70.5,9.5z"/>
				<path id="Shape_2_" class="st3" d="M92,15h-3.5V8.9c0-0.7-0.1-1.2-0.4-1.5c-0.3-0.3-0.6-0.5-1.1-0.5c-0.2,0-0.5,0-0.7,0.1
					c-0.2,0.1-0.5,0.2-0.7,0.4c-0.2,0.2-0.4,0.4-0.6,0.6c-0.2,0.2-0.3,0.5-0.4,0.8V15H81V4.2h3.1V6c0.4-0.6,1-1.1,1.8-1.5
					C86.7,4.2,87.6,4,88.6,4c0.7,0,1.3,0.1,1.8,0.4c0.4,0.2,0.8,0.6,1,1c0.2,0.4,0.4,0.8,0.5,1.3C92,7.2,92,7.6,92,8.1V15z"/>
				<path id="Shape_3_" class="st3" d="M105,15h-3.5V8.9c0-0.7-0.1-1.2-0.4-1.5c-0.3-0.3-0.6-0.5-1.1-0.5c-0.2,0-0.5,0-0.7,0.1
					c-0.2,0.1-0.5,0.2-0.7,0.4c-0.2,0.2-0.4,0.4-0.6,0.6c-0.2,0.2-0.3,0.5-0.4,0.8V15H94V4.2h3.1V6c0.4-0.6,1-1.1,1.8-1.5
					c0.8-0.4,1.7-0.5,2.7-0.5c0.7,0,1.3,0.1,1.8,0.4c0.4,0.2,0.8,0.6,1,1c0.2,0.4,0.4,0.8,0.5,1.3c0.1,0.5,0.1,0.9,0.1,1.4V15z"/>
				<path id="Shape_4_" class="st3" d="M112,15c-0.9,0-1.8-0.1-2.5-0.4c-0.7-0.3-1.4-0.7-1.9-1.2c-0.5-0.5-0.9-1.1-1.2-1.7
					c-0.3-0.7-0.4-1.3-0.4-2.1c0-0.8,0.1-1.5,0.4-2.2c0.3-0.7,0.7-1.3,1.2-1.8c0.5-0.5,1.1-0.9,1.9-1.2c0.8-0.3,1.6-0.4,2.6-0.4
					c1,0,1.8,0.1,2.5,0.4c0.7,0.3,1.4,0.7,1.9,1.2c0.5,0.5,0.9,1.1,1.2,1.7c0.3,0.7,0.4,1.4,0.4,2.1c0,0.2,0,0.4,0,0.6
					c0,0.2,0,0.3-0.1,0.5h-8.3c0.1,0.7,0.3,1.3,0.8,1.6c0.5,0.4,1.1,0.5,1.7,0.5c0.5,0,1-0.1,1.4-0.3c0.5-0.2,0.8-0.5,0.9-0.9
					l2.9,0.8c-0.4,0.8-1.1,1.5-2,2C114.4,14.7,113.3,15,112,15z M114.4,8.5c-0.1-0.7-0.3-1.2-0.8-1.6c-0.4-0.4-1-0.6-1.6-0.6
					c-0.7,0-1.2,0.2-1.7,0.6c-0.4,0.4-0.7,0.9-0.7,1.6H114.4z"/>
				<path id="Shape_5_" class="st3" d="M119,9.5c0-0.7,0.1-1.4,0.4-2.1c0.3-0.7,0.7-1.3,1.2-1.8c0.5-0.5,1.2-0.9,2-1.2
					c0.8-0.3,1.7-0.4,2.7-0.4c1.4,0,2.5,0.3,3.5,0.8c0.9,0.5,1.6,1.2,2.1,2l-3.5,0.9c-0.5-0.7-1.2-1-2.1-1c-0.8,0-1.4,0.2-1.9,0.7
					c-0.5,0.5-0.7,1.2-0.7,2c0,0.4,0.1,0.8,0.2,1.2c0.1,0.3,0.3,0.6,0.6,0.9c0.2,0.2,0.5,0.4,0.8,0.6c0.3,0.1,0.7,0.2,1,0.2
					c0.5,0,0.9-0.1,1.2-0.3c0.4-0.2,0.7-0.5,0.8-0.8l3.5,1c-0.4,0.8-1.1,1.5-2.1,2c-1,0.5-2.1,0.8-3.5,0.8c-1,0-1.9-0.1-2.7-0.4
					c-0.8-0.3-1.5-0.7-2-1.2c-0.5-0.5-1-1.1-1.2-1.8C119.1,10.9,119,10.2,119,9.5z"/>
				<path id="Shape_6_" class="st3" d="M140,15.2c-0.5,0.2-1,0.4-1.6,0.5c-0.6,0.2-1.2,0.2-1.8,0.2c-0.4,0-0.8-0.1-1.2-0.2
					c-0.4-0.1-0.7-0.2-1-0.5c-0.3-0.2-0.5-0.5-0.7-0.9c-0.2-0.4-0.2-0.8-0.2-1.3V7.7H132V5.3h1.4V2h3.4v3.3h2.3v2.4h-2.3v4.4
					c0,0.3,0.1,0.6,0.3,0.8c0.2,0.1,0.4,0.2,0.7,0.2c0.3,0,0.5,0,0.8-0.1c0.3-0.1,0.5-0.2,0.7-0.3L140,15.2z"/>
				<polygon id="Shape_7_" class="st3" points="12.4,15 12.4,6 9,12.5 7,12.5 3.6,6 3.6,15 0,15 0,0 3.9,0 8,7.8 12.1,0 16,0 16,15 
									"/>
				<polygon id="Shape_8_" class="st3" points="31,12 31,15 19,15 19,0 30.8,0 30.8,3 22.9,3 22.9,6 29.7,6 29.7,8.8 22.9,8.8 
					22.9,12 				"/>
				<polygon id="Shape_9_" class="st3" points="38,0 41.4,0 43,4.8 44.6,0 48,0 45.4,7 47,11 51,0 55,0 48.6,15 45.5,15 43,9.1 
					40.5,15 37.4,15 31,0 35,0 39,11 40.6,7 				"/>
			</g>
			<pattern  id="Rectangle-path_1_" xlink:href="#pattern-1" patternTransform="matrix(1 0 0 -1 -3 -15645)">
			</pattern>
			<rect id="Rectangle-path" class="st4" width="36" height="36"/>
		</g>
	</g>
</g>
<g id="Layer_2">
	<g>
		<g id="Layer_1_xA0_Image_1_">
			
				<image style="overflow:visible;enable-background:new    ;" width="2089" height="226" id="Layer_1_xA0_Image" xlink:href="42B1E3D.png"  transform="matrix(5.043216e-02 0 0 5.043216e-02 29.3389 7.7822)">
			</image>
		</g>
		<g id="Layer_2_xA0_Image_1_">
			
				<image style="overflow:visible;enable-background:new    ;" width="521" height="409" id="Layer_2_xA0_Image" xlink:href="42B1E43.png"  transform="matrix(5.948354e-02 0 0 5.948354e-02 1.7882 5.8356)">
			</image>
		</g>
		<g id="Wallet">
			<text transform="matrix(1 0 0 1 138.053 19.1875)" class="st5 st6 st7">Wallet</text>
		</g>
		<g id="powered_by_MyEtherWallet">
			<text transform="matrix(1 0 0 1 35.3616 26.208)" class="st5 st8 st9 st10">powered by MyEtherWallet</text>
		</g>
	</g>
</g>
</svg>
